HIERARCHY
ROOT Hips
{
	OFFSET -0.001795 -0.223333 0.028219
	CHANNELS 6 Xposition Yposition Zposition Zrotation Yrotation Xrotation 
	JOINT LeftUpLeg
	{
		OFFSET 0.069520 -0.091406 -0.006815
		CHANNELS 3 Zrotation Yrotation Xrotation
		JOINT LeftLeg
		{
			OFFSET 0.034277 -0.375199 -0.004496
			CHANNELS 3 Zrotation Yrotation Xrotation
			JOINT LeftFoot
			{
				OFFSET -0.013596 -0.397961 -0.043693
				CHANNELS 3 Zrotation Yrotation Xrotation
				JOINT LeftToe
				{
					OFFSET 0.026358 -0.055791 0.119288
					CHANNELS 3 Zrotation Yrotation Xrotation
					End Site
					{
						OFFSET 0.000000 0.000000 0.000000
					}
				}
			}
		}
	}
	JOINT RightUpLeg
	{
		OFFSET -0.067670 -0.090522 -0.004320
		CHANNELS 3 Zrotation Yrotation Xrotation
		JOINT RightLeg
		{
			OFFSET -0.038290 -0.382569 -0.008850
			CHANNELS 3 Zrotation Yrotation Xrotation
			JOINT RightFoot
			{
				OFFSET 0.015774 -0.398415 -0.042312
				CHANNELS 3 Zrotation Yrotation Xrotation
				JOINT RightToe
				{
					OFFSET -0.025372 -0.048144 0.123348
					CHANNELS 3 Zrotation Yrotation Xrotation
					End Site
					{
						OFFSET 0.000000 0.000000 0.000000
					}
				}
			}
		}
	}
	JOINT Spine
	{
		OFFSET -0.002533 0.108963 -0.026696
		CHANNELS 3 Zrotation Yrotation Xrotation
		JOINT Spine1
		{
			OFFSET 0.005487 0.135180 0.001092
			CHANNELS 3 Zrotation Yrotation Xrotation
			JOINT Spine2
			{
				OFFSET 0.001457 0.052922 0.025425
				CHANNELS 3 Zrotation Yrotation Xrotation
				JOINT Neck
				{
					OFFSET -0.002778 0.213870 -0.042857
					CHANNELS 3 Zrotation Yrotation Xrotation
					JOINT Head
					{
						OFFSET 0.005152 0.064970 0.051349
						CHANNELS 3 Zrotation Yrotation Xrotation
						End Site
						{
							OFFSET 0.000000 0.000000 0.000000
						}
					}
				}
				JOINT LeftShoulder
				{
					OFFSET 0.078845 0.121749 -0.034090
					CHANNELS 3 Zrotation Yrotation Xrotation
					JOINT LeftArm
					{
						OFFSET 0.090977 0.030469 -0.008868
						CHANNELS 3 Zrotation Yrotation Xrotation
						JOINT LeftForeArm
						{
							OFFSET 0.259612 -0.012772 -0.027456
							CHANNELS 3 Zrotation Yrotation Xrotation
							JOINT LeftHand
							{
								OFFSET 0.249234 0.008986 -0.001171
								CHANNELS 3 Zrotation Yrotation Xrotation
								End Site
								{
									OFFSET 0.000000 0.000000 0.000000
								}
							}
						}
					}
				}
				JOINT RightShoulder
				{
					OFFSET -0.081759 0.118833 -0.038615
					CHANNELS 3 Zrotation Yrotation Xrotation
					JOINT RightArm
					{
						OFFSET -0.096012 0.032551 -0.009143
						CHANNELS 3 Zrotation Yrotation Xrotation
						JOINT RightForeArm
						{
							OFFSET -0.253742 -0.013329 -0.021401
							CHANNELS 3 Zrotation Yrotation Xrotation
							JOINT RightHand
							{
								OFFSET -0.255298 0.007772 -0.005559
								CHANNELS 3 Zrotation Yrotation Xrotation
								End Site
								{
									OFFSET 0.000000 0.000000 0.000000
								}
							}
						}
					}
				}
			}
		}
	}
}
MOTION
Frames: 14
Frame Time: 0.050000
0.000115 0.958165 -0.020872 -0.506562 -5.488507 -2.023078 2.831525 0.820345 10.583678 -1.917256 0.434186 -9.887975 2.900153 9.556047 15.874694 0.000000 0.000000 0.000000 -5.592343 -0.075445 5.796268 3.912676 -0.385837 -5.734091 1.348476 -5.331436 17.626506 0.000000 0.000000 0.000000 6.471294 -0.465630 4.906230 -5.541841 1.847056 -26.569978 -0.324107 7.787370 32.274468 10.473197 -3.597699 -28.113089 0.000000 0.000000 0.000000 -4.695339 3.672690 -1.885462 -33.847741 -13.396778 -2.581613 74.615231 -50.086705 -36.642972 0.000000 0.000000 0.000000 13.212047 -15.783356 -7.887553 34.760645 15.614480 -1.609752 -68.433692 52.226417 -30.139241 0.000000 0.000000 0.000000 
0.000122 0.958382 -0.021558 -0.488871 -5.414417 -2.165376 2.879125 0.816624 10.598875 -2.006176 0.433017 -9.738608 2.851508 9.494240 15.882460 0.000000 0.000000 0.000000 -5.739546 -0.065001 5.756762 4.150977 -0.397441 -5.449894 1.325406 -5.365119 17.644963 0.000000 0.000000 0.000000 6.355861 -0.476305 5.101316 -5.454400 1.829851 -26.493279 -0.352380 7.523291 32.101080 10.334233 -3.611624 -27.784264 0.000000 0.000000 0.000000 -4.675377 3.737839 -1.895299 -33.900613 -13.632045 -2.527096 75.297534 -48.041611 -35.362669 0.000000 0.000000 0.000000 12.879957 -15.666017 -7.800235 34.419704 15.502197 -1.612114 -71.625289 50.976539 -31.213247 0.000000 0.000000 0.000000 
0.000014 0.958769 -0.022354 -0.449229 -5.511846 -2.212207 2.923849 0.798150 10.384988 -2.159014 0.430739 -9.350896 2.900779 9.562343 15.915534 0.000000 0.000000 0.000000 -5.829762 -0.049781 5.603680 4.242010 -0.400874 -5.216094 1.380762 -5.306949 17.694525 0.000000 0.000000 0.000000 6.211205 -0.484864 5.274195 -5.313106 1.795633 -26.582247 -0.269800 7.576058 32.055147 10.298419 -3.652386 -27.439164 0.000000 0.000000 0.000000 -4.571226 3.793075 -1.903729 -33.941463 -13.952622 -2.455489 75.440328 -46.230643 -34.014129 0.000000 0.000000 0.000000 13.006102 -15.894765 -7.944009 34.427706 15.275121 -1.666178 -74.573117 50.752010 -32.784147 0.000000 0.000000 0.000000 
-0.000188 0.959136 -0.023196 -0.538889 -5.423612 -2.264023 3.080633 0.780383 10.358712 -2.211194 0.430902 -9.304173 2.842121 9.496364 15.977142 0.000000 0.000000 0.000000 -5.707192 -0.064683 5.640443 4.241650 -0.402170 -5.236172 1.372233 -5.356709 17.840382 0.000000 0.000000 0.000000 6.029061 -0.488321 5.405091 -5.034287 1.732853 -26.619406 -0.185456 7.474630 32.026727 10.298830 -3.671681 -27.397094 0.000000 0.000000 0.000000 -4.335034 3.723321 -1.843674 -34.310806 -14.122314 -2.435947 75.703006 -44.936451 -33.104247 0.000000 0.000000 0.000000 13.001015 -15.880654 -7.940434 34.927635 14.982817 -1.739684 -76.927238 50.902732 -34.277469 0.000000 0.000000 0.000000 
-0.000418 0.959247 -0.024048 -0.647802 -5.414414 -2.264211 3.252928 0.753906 10.216667 -2.270641 0.429412 -9.131933 2.852849 9.507775 15.940565 0.000000 0.000000 0.000000 -5.409181 -0.093847 5.730541 3.964130 -0.389634 -5.468927 1.384106 -5.368251 17.934553 0.000000 0.000000 0.000000 5.939904 -0.493245 5.502120 -5.066308 1.741142 -26.496558 -0.031947 7.297797 31.892948 10.240634 -3.677264 -27.304519 0.000000 0.000000 0.000000 -4.330205 3.768085 -1.852615 -34.417327 -14.287184 -2.391570 76.196023 -44.049136 -32.613218 0.000000 0.000000 0.000000 13.237708 -15.849706 -7.988662 35.743896 14.449587 -1.865168 -78.548639 51.440320 -35.721704 0.000000 0.000000 0.000000 
-0.000597 0.959274 -0.024847 -0.809583 -5.355011 -2.104717 3.553087 0.702451 9.915846 -2.459612 0.433618 -8.983700 2.846152 9.492097 15.873556 0.000000 0.000000 0.000000 -5.187802 -0.113487 5.755628 3.929000 -0.388741 -5.868008 1.389676 -5.406105 18.112346 0.000000 0.000000 0.000000 5.851205 -0.497539 5.553267 -4.906549 1.703158 -26.623441 0.006060 7.258994 31.911504 10.241784 -3.697069 -27.192651 0.000000 0.000000 0.000000 -4.292583 3.552920 -1.762916 -34.895486 -14.295600 -2.413362 77.792616 -43.448620 -32.998451 0.000000 0.000000 0.000000 13.674574 -15.826631 -8.051231 36.908074 14.067410 -1.993174 -80.665582 52.515103 -37.833935 0.000000 0.000000 0.000000 
-0.000678 0.959187 -0.025472 -0.863954 -5.250519 -2.043618 3.739933 0.676579 9.816208 -2.653037 0.441360 -9.008571 2.791298 9.415742 15.839517 0.000000 0.000000 0.000000 -5.042265 -0.131512 5.846819 3.809570 -0.385272 -6.181331 1.353639 -5.474741 18.193705 0.000000 0.000000 0.000000 5.715455 -0.499205 5.624365 -4.948247 1.713558 -26.578501 0.134108 7.008479 31.660340 9.985520 -3.544444 -27.322421 0.000000 0.000000 0.000000 -4.392957 3.557840 -1.768566 -35.454467 -14.585594 -2.343033 79.654905 -43.108056 -33.657681 0.000000 0.000000 0.000000 14.015161 -15.669583 -8.056018 38.158041 13.659037 -2.098248 -82.018332 53.620704 -39.655942 0.000000 0.000000 0.000000 
-0.000575 0.959137 -0.025909 -0.884986 -5.513058 -1.884643 3.722741 0.667881 9.613181 -2.652305 0.442597 -8.944260 2.941993 9.613251 15.856081 0.000000 0.000000 0.000000 -4.891481 -0.135638 5.818405 3.550339 -0.372968 -6.558563 1.485881 -5.324139 18.268037 0.000000 0.000000 0.000000 5.580320 -0.470879 5.336458 -4.816609 1.679894 -26.592065 0.249127 7.166231 31.723700 9.916029 -3.538051 -27.108830 0.000000 0.000000 0.000000 -4.306058 3.453960 -1.717515 -36.370586 -14.746258 -2.338820 81.325704 -42.258988 -33.794855 0.000000 0.000000 0.000000 14.611906 -15.594149 -8.124818 39.498669 13.547260 -2.157217 -82.967313 55.209789 -41.587196 0.000000 0.000000 0.000000 
-0.000386 0.959085 -0.026224 -0.881451 -5.662988 -1.767010 3.592266 0.674209 9.526824 -2.486301 0.438184 -9.025360 3.032626 9.736032 15.892574 0.000000 0.000000 0.000000 -4.916468 -0.125315 5.739948 3.555724 -0.371458 -6.727448 1.562917 -5.236851 18.314244 0.000000 0.000000 0.000000 5.550849 -0.463019 5.236917 -4.867071 1.689256 -26.562909 0.527014 7.436674 31.772640 9.784818 -3.355841 -27.510476 0.000000 0.000000 0.000000 -4.500820 3.336987 -1.704914 -37.588612 -15.403250 -2.197604 83.379023 -41.918918 -34.618859 0.000000 0.000000 0.000000 15.283181 -15.780550 -8.318581 41.497470 13.683471 -2.141162 -84.099487 56.685894 -43.389117 0.000000 0.000000 0.000000 
-0.000239 0.958814 -0.026541 -0.835480 -5.857578 -1.660391 3.422717 0.687487 9.478079 -2.336725 0.436044 -9.146719 3.147197 9.884917 15.900170 0.000000 0.000000 0.000000 -4.880306 -0.114421 5.556441 3.370088 -0.362747 -6.708903 1.618754 -5.139197 18.200219 0.000000 0.000000 0.000000 5.527079 -0.440504 4.965261 -4.876666 1.688392 -26.629570 0.584274 7.522996 32.002603 9.675689 -3.280009 -27.643248 0.000000 0.000000 0.000000 -4.791224 3.005567 -1.602080 -38.646577 -15.745805 -2.143691 85.131271 -41.351850 -34.970501 0.000000 0.000000 0.000000 15.822233 -15.551021 -8.294009 43.170315 14.018263 -2.059465 -84.505484 57.736389 -44.453654 0.000000 0.000000 0.000000 
-0.000322 0.958726 -0.027077 -0.856162 -6.030173 -1.543377 3.362455 0.678583 9.265971 -2.218739 0.429536 -9.018234 3.268758 10.041338 15.876023 0.000000 0.000000 0.000000 -4.755383 -0.106728 5.269823 3.188245 -0.353859 -6.532689 1.666307 -5.058735 18.107362 0.000000 0.000000 0.000000 5.551864 -0.425102 4.751173 -4.863590 1.684504 -26.432978 0.575783 7.523814 31.893440 9.437976 -3.093567 -28.010763 0.000000 0.000000 0.000000 -4.893307 2.824375 -1.534428 -39.787132 -16.228513 -2.014506 86.837720 -40.959649 -35.414720 0.000000 0.000000 0.000000 16.105815 -15.208451 -8.176070 44.989510 14.490013 -1.872414 -86.019572 58.895983 -46.507877 0.000000 0.000000 0.000000 
-0.000687 0.958716 -0.027909 -0.817054 -6.008173 -1.575731 3.220614 0.679277 9.138731 -1.990526 0.414982 -8.841052 3.289108 10.067248 15.843358 0.000000 0.000000 0.000000 -4.753055 -0.108895 5.298285 3.164095 -0.353711 -6.613111 1.657108 -5.073683 18.113723 0.000000 0.000000 0.000000 5.621067 -0.410565 4.557697 -5.010503 1.720099 -26.216014 0.502620 7.487971 31.906407 9.371592 -3.042685 -28.095931 0.000000 0.000000 0.000000 -4.896091 2.292675 -1.318392 -39.964770 -17.271057 -1.699115 87.037289 -40.379331 -34.952571 0.000000 0.000000 0.000000 16.171152 -14.785456 -7.952028 46.629872 15.301746 -1.551082 -88.176164 59.465515 -48.479042 0.000000 0.000000 0.000000 
-0.001325 0.958732 -0.029039 -0.807810 -6.056642 -1.596228 3.163975 0.676406 9.033954 -1.834318 0.405445 -8.732920 3.331506 10.126140 15.857806 0.000000 0.000000 0.000000 -4.660844 -0.110073 5.183127 3.066222 -0.349083 -6.505809 1.662279 -5.055309 18.058060 0.000000 0.000000 0.000000 5.573686 -0.399547 4.454616 -4.969810 1.710775 -26.148749 0.253628 7.424047 31.959678 9.178978 -2.986550 -27.854332 0.000000 0.000000 0.000000 -4.550471 1.668963 -1.025292 -40.038232 -18.467470 -1.342276 87.399573 -40.006806 -34.722813 0.000000 0.000000 0.000000 16.045409 -14.010417 -7.512388 47.554322 16.496595 -1.085161 -90.605295 59.671573 -50.468892 0.000000 0.000000 0.000000 
-0.002060 0.958893 -0.030298 -0.768912 -5.905694 -1.689983 3.083036 0.678300 9.012023 -1.637580 0.394295 -8.697216 3.256403 10.037771 15.906656 0.000000 0.000000 0.000000 -4.664533 -0.107929 5.062616 3.114169 -0.350991 -6.214197 1.576011 -5.158256 18.010555 0.000000 0.000000 0.000000 5.587768 -0.407695 4.562301 -5.059181 1.736109 -25.884482 0.155035 7.421846 31.760320 9.368172 -3.121355 -27.552144 0.000000 0.000000 0.000000 -4.297323 0.788732 -0.659580 -39.101737 -19.645705 -0.977708 87.050695 -39.340037 -34.077807 0.000000 0.000000 0.000000 15.719722 -13.441317 -7.129800 47.806140 17.294430 -0.739053 -92.881862 60.603131 -53.175093 0.000000 0.000000 0.000000 
